<svg width="38" height="68" viewBox="0 0 38 68" fill="none" xmlns="http://www.w3.org/2000/svg">
<path d="M19.368 54.448C16.1947 54.448 13.3387 53.7947 10.8 52.488C8.29867 51.144 6.33867 49.296 4.92 46.944C3.50133 44.592 2.792 41.9227 2.792 38.936C2.792 35.9493 3.50133 33.28 4.92 30.928C6.33867 28.576 8.29867 26.7467 10.8 25.44C13.3387 24.096 16.1947 23.424 19.368 23.424C22.5413 23.424 25.3787 24.096 27.88 25.44C30.3813 26.7467 32.3413 28.576 33.76 30.928C35.1787 33.28 35.888 35.9493 35.888 38.936C35.888 41.9227 35.1787 44.592 33.76 46.944C32.3413 49.296 30.3813 51.144 27.88 52.488C25.3787 53.7947 22.5413 54.448 19.368 54.448ZM19.368 47.28C21.608 47.28 23.4373 46.5333 24.856 45.04C26.312 43.5093 27.04 41.4747 27.04 38.936C27.04 36.3973 26.312 34.3813 24.856 32.888C23.4373 31.3573 21.608 30.592 19.368 30.592C17.128 30.592 15.28 31.3573 13.824 32.888C12.368 34.3813 11.64 36.3973 11.64 38.936C11.64 41.4747 12.368 43.5093 13.824 45.04C15.28 46.5333 17.128 47.28 19.368 47.28Z" fill="#2EB7E6"/>
<path d="M19 29L25.3333 21.2667C23.5741 20.0583 21.375 19.3333 19 19.3333C16.625 19.3333 14.4259 20.0583 12.6667 21.2667L19 29ZM19 0C11.875 0 5.29537 2.15889 0 5.8L3.16667 9.66667C7.56482 6.63778 13.0537 4.83333 19 4.83333C24.9463 4.83333 30.4352 6.63778 34.8333 9.66667L38 5.8C32.7046 2.15889 26.125 0 19 0M19 9.66667C14.25 9.66667 9.86945 11.1006 6.33333 13.5333L9.5 17.4C12.1389 15.5794 15.4287 14.5 19 14.5C22.5713 14.5 25.8611 15.5794 28.5 17.4L31.6667 13.5333C28.1306 11.1006 23.75 9.66667 19 9.66667Z" fill="#2EB7E6"/>
</svg>
