<svg width="259" height="207" viewBox="0 0 259 207" fill="none" xmlns="http://www.w3.org/2000/svg">
<path fill-rule="evenodd" clip-rule="evenodd" d="M38.7811 206.832C28.4957 206.832 18.6316 202.747 11.3587 195.474C4.08585 188.201 0 178.337 0 168.051V38.7811C0 28.4957 4.08585 18.6316 11.3587 11.3587C18.6316 4.08585 28.4957 0 38.7811 0H219.759C230.045 0 239.909 4.08585 247.182 11.3587C254.455 18.6316 258.54 28.4957 258.54 38.7811V168.051C258.54 178.337 254.455 188.201 247.182 195.474C239.909 202.747 230.045 206.832 219.759 206.832H38.7811ZM72.7145 54.552C71.3977 53.4276 69.8684 52.5792 68.2174 52.0572C66.5664 51.5351 64.8273 51.3501 63.1034 51.5131C61.3795 51.6761 59.7059 52.1837 58.182 53.0059C56.6581 53.8281 55.3149 54.9481 54.2321 56.2994C53.1494 57.6507 52.3491 59.2057 51.8789 60.8722C51.4087 62.5387 51.278 64.2827 51.4948 66.0007C51.7115 67.7186 52.2712 69.3756 53.1405 70.8731C54.0099 72.3706 55.1713 73.6782 56.5557 74.7182L105.032 113.512C111.91 119.019 120.459 122.02 129.27 122.02C138.082 122.02 146.63 119.019 153.508 113.512L201.985 74.7311C203.311 73.6701 204.414 72.3584 205.233 70.8708C206.052 69.3832 206.57 67.7488 206.757 66.0611C206.945 64.3733 206.798 62.6652 206.325 61.0343C205.852 59.4034 205.062 57.8816 204.001 56.5557C202.94 55.2299 201.629 54.126 200.141 53.3072C198.653 52.4883 197.019 51.9704 195.331 51.7832C193.644 51.5959 191.935 51.7429 190.305 52.2158C188.674 52.6886 187.152 53.4781 185.826 54.5391L137.35 93.3202C135.057 95.1559 132.207 96.1561 129.27 96.1561C126.333 96.1561 123.484 95.1559 121.191 93.3202L72.7145 54.5391V54.552Z" fill="#AF8AFF"/>
</svg>
