<svg width="177" height="177" viewBox="0 0 177 177" fill="none" xmlns="http://www.w3.org/2000/svg">
<path d="M66.3894 82.895V55.3125C66.3894 50.4226 68.3319 45.7329 71.7896 42.2752C75.2473 38.8175 79.937 36.875 84.8269 36.875C89.7168 36.875 94.4065 38.8175 97.8642 42.2752C101.322 45.7329 103.264 50.4226 103.264 55.3125V82.895C112.188 76.9212 118.014 66.8175 118.014 55.3125C118.014 36.9487 103.191 22.125 84.8269 22.125C66.4632 22.125 51.6394 36.9487 51.6394 55.3125C51.6394 66.8175 57.4657 76.9212 66.3894 82.895ZM138.959 117.041L105.477 100.374C104.223 99.8575 102.896 99.5625 101.494 99.5625H95.8894V55.3125C95.8894 49.1913 90.9482 44.25 84.8269 44.25C78.7057 44.25 73.7644 49.1913 73.7644 55.3125V134.52L48.4682 129.21C47.8782 129.136 47.3619 128.989 46.6982 128.989C44.4119 128.989 42.3469 129.947 40.8719 131.422L35.0457 137.323L71.4782 173.755C73.4694 175.746 76.2719 177 79.2957 177H129.372C134.903 177 139.181 172.944 139.992 167.56L145.523 128.694C145.597 128.178 145.671 127.661 145.671 127.219C145.671 122.646 142.868 118.664 138.959 117.041V117.041Z" fill="#72D2F2"/>
</svg>
